<?xml version="1.0" encoding="UTF-8"?>
<svg width="17px" height="25px" viewBox="0 0 17 25" version="1.1" xmlns="http://www.w3.org/2000/svg" xmlns:xlink="http://www.w3.org/1999/xlink">
    <defs></defs>
    <g id="04_E.ai_v1.0_Enterprise" stroke="none" stroke-width="1" fill="none" fill-rule="evenodd">
        <g id="Rupee" fill="#FBC25E">
            <path d="M16.1137997,5.66401489 C16.0051741,5.55748345 15.8661383,5.50431101 15.6971369,5.50431101 L12.5977188,5.50431101 C12.392149,4.52214461 12.0054518,3.66958213 11.4375638,2.94755643 L15.6606955,2.94755643 C15.8301414,2.94755643 15.9687962,2.89432181 16.0778028,2.78803912 C16.185984,2.68156987 16.2403286,2.54531162 16.2403286,2.37963751 L16.2403286,0.568167684 C16.2403286,0.40236919 16.1860475,0.266359697 16.0778028,0.159766066 C15.9686692,0.0534211953 15.8300144,0 15.6605685,0 L0.579950516,0 C0.410695117,0 0.271849821,0.0534211953 0.163033708,0.159703876 C0.0545350294,0.266297507 0,0.402307 0,0.568105494 L0,2.92958353 C0,3.08344154 0.0573919285,3.2165903 0.172175786,3.32902979 C0.286959643,3.44146928 0.422884553,3.49768902 0.579950516,3.49768902 L3.2082342,3.49768902 C5.75779444,3.49768902 7.37708485,4.16629353 8.06578799,5.50400006 L0.579950516,5.50400006 C0.410695117,5.50400006 0.271659361,5.5571725 0.163033708,5.66370394 C0.0545350294,5.77035976 0,5.90630706 0,6.07210555 L0,7.88332662 C0,8.04900073 0.0542810828,8.18519679 0.163033708,8.29147947 C0.271849821,8.3981353 0.410949063,8.45118335 0.579950516,8.45118335 L8.31992503,8.45118335 C8.05404296,9.42209336 7.43466723,10.161781 6.46179786,10.670806 C5.488865,11.1798932 4.2052285,11.4344368 2.61006301,11.4344368 L0.579950516,11.4344368 C0.422884553,11.4344368 0.286959643,11.4907188 0.172175786,11.6030961 C0.0573284419,11.7155977 0,11.8488087 0,12.0025423 L0,14.2577377 C0,14.4118445 0.0542810828,14.5420081 0.163033708,14.6484152 C2.48302623,17.0631278 5.49203934,20.4423449 9.18969209,24.7869371 C9.29857169,24.9291034 9.44954294,25 9.64292326,25 L13.1773518,25 C13.4313619,25 13.606712,24.8937795 13.7030848,24.6802813 C13.8238999,24.4672184 13.8002193,24.2659716 13.6305195,24.0765409 C10.1024396,19.8387289 7.32896197,16.6664179 5.31091193,14.5594835 C7.36521284,14.3227884 9.03281659,13.6715971 10.3137867,12.6064693 C11.5945663,11.541217 12.3738649,10.1559974 12.6519998,8.4514943 L15.6971369,8.4514943 C15.8661383,8.4514943 16.0052375,8.39838406 16.1137997,8.29179042 C16.2226793,8.18550774 16.2771509,8.04931168 16.2771509,7.88363757 L16.2771509,6.07260307 C16.2771509,5.90661801 16.2226793,5.77060852 16.1137997,5.66401489 Z" id="Shape"></path>
        </g>
    </g>
</svg>