<svg fill="none" height="400" viewBox="0 0 400 400" width="400" xmlns="http://www.w3.org/2000/svg" xmlns:xlink="http://www.w3.org/1999/xlink"><mask id="a" height="400" maskUnits="userSpaceOnUse" width="400" x="0" y="0"><path clip-rule="evenodd" d="m34.4262 0h330.6868c18.976 0 34.426 15.5256 34.426 34.4262v330.6868c0 18.976-15.525 34.426-34.426 34.426h-330.6868c-18.9006.075-34.4262-15.45-34.4262-34.426v-330.6868c0-18.9006 15.5256-34.4262 34.4262-34.4262z" fill="#fff" fill-rule="evenodd"/></mask><rect fill="#000" height="400" rx="3" width="400"/><g mask="url(#a)"><path d="m0 0h400v400h-400zm93.7344 138.656c.0312 8.313.0156 16.641.0156 24.969 35.453 20.203 70.797 40.578 106.25 60.75 21.359-12.328 42.719-24.672 64.047-37.045.078 16.328-.095 32.64.095 48.968-21.236 12.641-42.828 24.671-64.142 37.188-21.359-12.422-42.828-24.688-64.234-37.031-14.157 8-28.266 16.061-42.391 24.109 35.406 20.672 71.109 40.845 106.625 61.344 35.422-20.328 70.938-40.467 106.295-60.921-.076-40.796-.061-81.593-.015-122.39-35.375-20.422-70.844-40.7032-106.264-61.047-35.447 20.3348-70.874 40.704-106.2816 61.106z" fill="#000"/><path d="m156.672 150.906c14.484-8.218 28.875-16.625 43.328-24.906 14.533 8.297 29.016 16.688 43.563 24.953-14.547 8.313-29.047 16.656-43.563 24.985-14.422-8.375-28.953-16.594-43.328-25.032z" fill="#000"/><path d="m93.7344 138.656c35.4216-20.406 70.8436-40.7809 106.2826-61.109 35.421 20.3437 70.891 40.625 106.264 61.047-.045 40.797-.061 81.594.016 122.39-35.359 20.454-70.875 40.594-106.297 60.922-35.516-20.498-71.219-40.67-106.625-61.343 14.125-8.047 28.234-16.11 42.391-24.11 21.406 12.344 42.875 24.61 64.234 37.031 21.314-12.517 42.906-24.546 64.142-37.187-.189-16.328-.017-32.642-.095-48.969-21.328 12.375-42.688 24.719-64.047 37.046-35.453-20.172-70.797-40.547-106.25-60.75 0-8.327.0156-16.655-.0156-24.968zm62.9376 12.25c14.375 8.438 28.906 16.657 43.328 25.032 14.516-8.329 29.016-16.672 43.563-24.985-14.547-8.265-29.03-16.656-43.563-24.953-14.453 8.281-28.844 16.688-43.328 24.906z" fill="#fff"/></g></svg>