<svg fill="none" height="400" viewBox="0 0 400 400" width="400" xmlns="http://www.w3.org/2000/svg"><rect fill="#fff" height="400" rx="3" width="400"/><path clip-rule="evenodd" d="m261.496 221.145c-4.785 5.164-10.931 7.787-18.262 7.787-7.334 0-13.479-2.623-18.261-7.787-4.568-4.919-7.192-12.784-7.192-21.572 0-8.578 2.653-16.335 7.27-21.289 4.832-5.165 10.948-7.799 18.177-7.82 7.242.021 13.358 2.655 18.186 7.82 4.623 4.954 7.271 12.711 7.271 21.289 0 8.788-2.622 16.653-7.189 21.572zm-64.206-21.572c0 .397.017.788.029 1.179-7.337-6.719-17.946-9.22-24.427-10.524-11.992-2.544-21.153-4.872-21.153-13.462 0-6.059 5.394-10.468 15.756-9.712 9.469.691 13.456 6.515 14.549 12.134.157.922.58 1.593 1.624 1.602l17.029.146c.081 0 .151-.009.223-.015-2.401 5.634-3.63 11.907-3.63 18.652zm-28.963 31.515c-8.236 0-17.31-2.943-19.401-14.334-.177-1.088-.687-1.537-1.516-1.56l-16.464-.222v-29.278c2.164 8.581 9.33 14.521 24.827 18.031 10.374 2.497 28.368 4.084 28.368 14.797 0 7.469-5.467 12.741-15.814 12.566zm-82-2.144c-13.282 0-25.4504-10.518-25.4504-29.359 0-14.784 9.1234-29.109 25.5374-29.109 7.1108 0 25.14 2.451 25.14 29.109 0 26.727-18.8238 29.359-25.2299 29.359zm202.359-36.551c3.779 5.071 10.599 8.825 21.68 11.335 10.371 2.497 28.368 4.084 28.368 14.797 0 7.469-5.469 12.741-15.814 12.566-8.233 0-17.313-2.944-19.401-14.334-.174-1.088-.684-1.537-1.516-1.561l-15.254-.204c1.609-4.776 2.43-9.949 2.43-15.416-.001-2.403-.166-4.803-.493-7.183zm33.109 53.607c18.267 0 39.797-6.842 38.112-29.033-1.862-19.699-22.237-24.688-32.422-26.736-11.994-2.544-21.156-4.872-21.156-13.462 0-6.059 5.395-10.468 15.759-9.712 9.469.691 13.456 6.515 14.549 12.134.157.922.583 1.593 1.624 1.602l17.029.146c1.296.008 1.7-.669 1.537-1.596-3.335-20.534-20.387-26.343-36.079-26.343-15.668 0-34.547 4.429-35.887 24.038-.047.758-.064 1.505-.064 2.238-2.494-5.217-6.09-10.008-10.724-14.25-8.555-7.761-19.221-11.918-30.853-12.02h-.386c-5.556 0-10.994 1.03-16.165 3.072-5.255 2.091-10.091 5.123-14.273 8.948-4.388 4.015-7.854 8.519-10.33 13.412-3.689-19.79-20.457-25.438-35.914-25.438-14.384 0-31.476 3.743-35.206 19.548v-15.688c0-.402-.16-.787-.442-1.071-.283-.284-.666-.443-1.066-.443h-16.037c-.399 0-.782.161-1.064.445-.282.285-.441.67-.441 1.072v4.23c0 .712-.472.96-1.05.546-5.704-4.163-14.1428-8.63-24.2986-8.63-5.7072 0-11.1563 1.009-16.1994 2.999-5.046 1.996-9.8426 5.033-14.2448 9.03-5.0112 4.586-8.8276 9.814-11.3303 15.539-2.5027 5.724-3.7729 12.119-3.7729 19.005 0 6.427 1.1252 12.455 3.3408 17.902s5.5883 10.486 10.0282 14.979c4.437 4.493 9.4018 7.906 14.7465 10.153 5.3447 2.237 11.2346 3.372 17.516 3.372 10.7938 0 18.8935-4.624 24.2005-8.828.586-.449 1.064-.207 1.064.528v4.443c0 .835.679 1.517 1.508 1.517h16.037c.399-.001.782-.162 1.064-.446s.441-.669.441-1.071v-14.967c7.561 17.885 26.825 18.833 36.256 18.833 15.765 0 33.945-5.106 37.552-20.767 1.735 2.592 3.713 5.01 5.907 7.221 8.596 8.703 19.86 13.383 32.588 13.523h.522c6.043 0 11.875-1.167 17.333-3.475 5.51-2.344 10.507-5.759 14.703-10.048 3.139-3.149 5.82-6.728 7.963-10.632 5.716 23.058 27.733 24.178 38.025 24.178z" fill="#0b0b0a" fill-rule="evenodd"/></svg>