<svg width="47" height="32" viewBox="0 0 47 32" fill="none" xmlns="http://www.w3.org/2000/svg">
<path d="M36.2706 26.4236C41.407 26.4236 45.5708 22.2597 45.5708 17.1234C45.5708 11.9871 41.407 7.82324 36.2706 7.82324C31.1343 7.82324 26.9705 11.9871 26.9705 17.1234C26.9705 22.2597 31.1343 26.4236 36.2706 26.4236Z" fill="#F0F5FF"/>
<path d="M36.2707 8.7531C37.9262 8.7531 39.5444 9.244 40.9209 10.1637C42.2974 11.0834 43.3702 12.3907 44.0037 13.9201C44.6372 15.4496 44.803 17.1325 44.48 18.7562C44.1571 20.3798 43.3599 21.8712 42.1893 23.0418C41.0187 24.2124 39.5273 25.0096 37.9036 25.3326C36.28 25.6555 34.597 25.4898 33.0676 24.8563C31.5381 24.2227 30.2309 23.1499 29.3112 21.7734C28.3915 20.397 27.9006 18.7787 27.9006 17.1232C27.903 14.9041 28.7857 12.7766 30.3548 11.2074C31.924 9.6382 34.0516 8.75556 36.2707 8.7531ZM36.2707 6.89307C34.2474 6.89307 32.2695 7.49306 30.5871 8.61716C28.9048 9.74127 27.5936 11.339 26.8193 13.2083C26.045 15.0776 25.8424 17.1346 26.2371 19.1191C26.6318 21.1035 27.6062 22.9264 29.0369 24.3571C30.4676 25.7878 32.2904 26.7621 34.2749 27.1569C36.2594 27.5516 38.3163 27.349 40.1856 26.5747C42.0549 25.8004 43.6527 24.4892 44.7768 22.8068C45.9009 21.1245 46.5009 19.1466 46.5009 17.1232C46.5009 14.41 45.4231 11.8079 43.5045 9.88942C41.586 7.97089 38.9839 6.89307 36.2707 6.89307Z" fill="#2F54EB"/>
<path fill-rule="evenodd" clip-rule="evenodd" d="M12.877 0H0V32H13.4183L13.6619 31.9981L13.9037 31.9907L14.1437 31.9814L14.3818 31.9684L14.618 31.9498L14.8505 31.9275L15.0811 31.9033L15.3118 31.8735L15.5369 31.84L15.7619 31.8028L15.9833 31.7619L16.2027 31.7173L16.4204 31.6671L16.6343 31.615L16.8463 31.5592L17.0546 31.4978L17.2611 31.4346L17.4657 31.3657L17.6666 31.2932L17.8638 31.2188L18.0591 31.1388L18.2525 31.0551L18.4422 30.9695L18.6282 30.8784L18.8124 30.7835L18.9909 30.685L19.1695 30.5827L19.3425 30.4785L19.5136 30.3688L19.681 30.2553L19.8465 30.1381L20.0065 30.0172L20.1646 29.8944L20.319 29.7661L20.4697 29.634L20.6166 29.4983L20.7617 29.3606L20.9012 29.2174L21.037 29.0723L21.1709 28.9216L21.2992 28.7691L21.4257 28.611L21.5466 28.4511L21.6638 28.2874L21.7791 28.1181L21.8889 27.947L21.9949 27.7721L22.0953 27.5936L22.1939 27.4132L22.2888 27.2272L22.3781 27.0374L22.4636 26.844L22.5436 26.6487L22.6199 26.4497L22.6924 26.2469L22.7612 26.0405L22.8263 25.8303L22.884 25.6164L22.9398 25.3987L22.99 25.1793L23.0346 24.9542L23.0774 24.7273L23.1128 24.4966L23.1444 24.2623L23.1723 24.0242L23.1946 23.7842L23.2113 23.5387L23.2244 23.2913L23.2318 23.0402L23.2337 22.7854L23.2281 22.4711L23.2151 22.1623L23.1927 21.8628L23.163 21.5708L23.1239 21.2881L23.0756 21.0128L23.0216 20.7449L22.9602 20.4845L22.8914 20.2334L22.817 19.9879L22.7352 19.7498L22.6459 19.5192L22.5529 19.296L22.4525 19.0802L22.3483 18.8719L22.2385 18.6691L22.1232 18.4738L22.0042 18.2841L21.8814 18.1018L21.7531 17.927L21.6229 17.7577L21.4871 17.594L21.3513 17.4359L21.21 17.2853L21.0686 17.1402L20.9235 17.0007L20.7766 16.8668L20.6278 16.7384L20.4771 16.6157L20.3264 16.4966L20.1758 16.385L20.0233 16.279L19.8707 16.1767L19.7182 16.08L19.415 15.8996L19.1156 15.7377L18.8217 15.5945L18.9575 15.5276L19.2402 15.3732L19.5303 15.189L19.8261 14.9788L19.9749 14.8617L20.1237 14.7408L20.2725 14.6106L20.4213 14.4748L20.5682 14.3316L20.7152 14.1827L20.8584 14.0265L21.0016 13.8628L21.1411 13.6954L21.2769 13.5187L21.409 13.3364L21.5392 13.1486L21.6638 12.9533L21.7847 12.7524L21.9019 12.5441L22.0116 12.3302L22.1158 12.1107L22.2144 11.8837L22.3074 11.6494L22.3911 11.4113L22.4692 11.1658L22.5399 10.9147L22.6031 10.658L22.6552 10.3939L22.6998 10.126L22.7352 9.84887L22.7612 9.56801L22.778 9.28156L22.7835 8.98954L22.7798 8.75517L22.7742 8.52267L22.7631 8.29389L22.7482 8.06882L22.7277 7.84376L22.7036 7.62241L22.6757 7.40479L22.6422 7.18903L22.605 6.97512L22.5622 6.76494L22.5176 6.55662L22.4673 6.35015L22.4115 6.14741L22.3539 5.94838L22.2906 5.75122L22.2237 5.55778L22.153 5.36619L22.0767 5.17647L21.9986 4.99233L21.913 4.80818L21.8256 4.62962L21.7345 4.45292L21.6378 4.27808L21.5392 4.10881L21.435 3.93955L21.3271 3.77587L21.2155 3.61404L21.0983 3.45594L20.9793 3.30156L20.8547 3.14904L20.7263 3.00023L20.5961 2.85515L20.4604 2.71193L20.3209 2.57429L20.1776 2.4385L20.0307 2.30644L19.88 2.1781L19.7238 2.05162L19.5657 1.93071L19.4039 1.81167L19.2383 1.69635L19.0672 1.58475L18.8942 1.47687L18.7175 1.3727L18.5371 1.27226L18.3529 1.17554L18.1632 1.08068L17.9716 0.991397L17.7763 0.905836L17.5773 0.822134L17.3764 0.744013L17.17 0.669612L16.9598 0.598931L16.7477 0.531969L16.5301 0.468728L16.3106 0.409207L16.0874 0.353406L15.8605 0.301325L15.6299 0.252964L15.3973 0.210184L15.1593 0.171123L14.9193 0.135782L14.6757 0.104162L14.4283 0.0762613L14.1772 0.0539409L13.9242 0.0334806L13.6675 0.0186003L13.4071 0.00930016L13.1448 0.00186003L12.877 0Z" fill="#2F54EB"/>
</svg>
