<svg width="46" height="32" viewBox="0 0 46 32" fill="none" xmlns="http://www.w3.org/2000/svg">
<path fill-rule="evenodd" clip-rule="evenodd" d="M34.4118 26.2278V18.8621H27.3632V15.7H34.4118V7.99951H37.5081V15.7H45.2124V18.8621H37.5081V26.2278H34.4118Z" fill="#E2FCEA"/>
<path d="M36.7796 8.7434V16.4439H44.4839V18.118H36.7796V25.4837H35.1403V18.118H28.0917V16.4439H35.1403V8.7434H36.7796ZM38.2366 7.25537H33.6833V14.9559H26.6346V19.606H33.6833V26.9717H38.2366V19.606H45.9409V14.9559H38.2366V7.25537Z" fill="#00D659"/>
<path fill-rule="evenodd" clip-rule="evenodd" d="M13.3807 -0.00976562H0.771484V31.9902H13.9107L14.1493 31.9884L14.3861 31.9809L14.621 31.9716L14.8542 31.9586L15.0855 31.94L15.3131 31.9177L15.539 31.8935L15.7648 31.8638L15.9852 31.8303L16.2056 31.7931L16.4223 31.7522L16.6373 31.7075L16.8504 31.6573L17.0598 31.6052L17.2674 31.5494L17.4714 31.488L17.6736 31.4248L17.874 31.356L18.0707 31.2834L18.2637 31.209L18.455 31.129L18.6444 31.0453L18.8302 30.9598L19.0123 30.8686L19.1926 30.7738L19.3675 30.6752L19.5423 30.5729L19.7117 30.4687L19.8793 30.359L20.0432 30.2455L20.2053 30.1283L20.3619 30.0074L20.5167 29.8847L20.6679 29.7563L20.8154 29.6243L20.9593 29.4885L21.1014 29.3509L21.238 29.2076L21.3709 29.0625L21.5021 28.9119L21.6278 28.7594L21.7516 28.6013L21.87 28.4413L21.9847 28.2776L22.0977 28.1083L22.2051 27.9372L22.3089 27.7624L22.4073 27.5838L22.5038 27.4034L22.5967 27.2174L22.6841 27.0277L22.7679 26.8342L22.8462 26.6389L22.9209 26.4399L22.9919 26.2372L23.0593 26.0307L23.1231 25.8205L23.1795 25.6066L23.2342 25.389L23.2834 25.1695L23.3271 24.9444L23.369 24.7175L23.4036 24.4869L23.4345 24.2525L23.4618 24.0144L23.4837 23.7745L23.5001 23.5289L23.5128 23.2816L23.5201 23.0305L23.522 22.7756L23.5165 22.4613L23.5037 22.1525L23.4819 21.8531L23.4527 21.561L23.4145 21.2783L23.3671 21.003L23.3143 20.7352L23.2542 20.4748L23.1868 20.2237L23.114 19.9781L23.0338 19.7401L22.9464 19.5094L22.8553 19.2862L22.757 19.0704L22.655 18.8621L22.5475 18.6594L22.4346 18.4641L22.318 18.2744L22.1978 18.0921L22.0722 17.9172L21.9447 17.748L21.8117 17.5843L21.6787 17.4262L21.5403 17.2755L21.4019 17.1304L21.2598 16.9909L21.116 16.857L20.9702 16.7287L20.8227 16.6059L20.6752 16.4869L20.5277 16.3753L20.3783 16.2692L20.229 16.1669L20.0796 16.0702L19.7827 15.8898L19.4895 15.728L19.2017 15.5847L19.3347 15.5178L19.6115 15.3634L19.8956 15.1793L20.1852 14.9691L20.331 14.8519L20.4767 14.731L20.6224 14.6008L20.7681 14.465L20.912 14.3218L21.0558 14.173L21.1961 14.0167L21.3363 13.8531L21.4729 13.6857L21.6059 13.509L21.7352 13.3267L21.8627 13.1388L21.9847 12.9435L22.1031 12.7426L22.2179 12.5343L22.3253 12.3204L22.4273 12.1009L22.5239 11.874L22.6149 11.6396L22.6969 11.4015L22.7734 11.156L22.8426 10.9049L22.9045 10.6482L22.9555 10.3841L22.9992 10.1163L23.0338 9.83911L23.0593 9.55824L23.0757 9.2718L23.0812 8.97977L23.0775 8.74541L23.0721 8.5129L23.0612 8.28412L23.0466 8.05906L23.0265 7.83399L23.0029 7.61265L22.9755 7.39502L22.9428 7.17926L22.9063 6.96536L22.8644 6.75517L22.8207 6.54685L22.7716 6.34039L22.7169 6.13764L22.6605 5.93862L22.5985 5.74146L22.533 5.54801L22.4638 5.35643L22.3891 5.16671L22.3126 4.98256L22.2288 4.79842L22.1432 4.61986L22.0539 4.44315L21.9592 4.26831L21.8627 4.09905L21.7607 3.92978L21.6551 3.7661L21.5458 3.60428L21.431 3.44618L21.3145 3.29179L21.1924 3.13927L21.0668 2.99047L20.9393 2.84538L20.8063 2.70216L20.6697 2.56452L20.5295 2.42874L20.3856 2.29667L20.2381 2.16833L20.0851 2.04185L19.9303 1.92095L19.7718 1.80191L19.6097 1.68658L19.4421 1.57498L19.2727 1.4671L19.0997 1.36294L18.923 1.2625L18.7427 1.16578L18.557 1.07091L18.3694 0.981632L18.1781 0.89607L17.9832 0.812369L17.7865 0.734247L17.5844 0.659846L17.3785 0.589165L17.1709 0.522204L16.9578 0.458963L16.7429 0.399442L16.5243 0.343641L16.3021 0.29156L16.0763 0.243199L15.8486 0.200418L15.6155 0.161357L15.3805 0.126017L15.1419 0.0943962L14.8997 0.0664957L14.6538 0.0441753L14.4061 0.023715L14.1548 0.0088347L13.8998 -0.000465461L13.643 -0.00790559L13.3807 -0.00976562Z" fill="#00D659"/>
</svg>
